<svg width="58" height="53" viewBox="0 0 58 53" fill="none" xmlns="http://www.w3.org/2000/svg">
<path d="M55.8075 42.9244C48.6909 41.8358 48.1547 40.7959 48.1547 40.7959C49.6171 32.0058 45.0839 20.876 37.6586 14.848C27.7961 6.83783 12.7831 12.6546 1.10086 0.468656C-1.62878 -2.37472 -0.0364893 32.3633 14.5866 45.5241C25.2777 55.1428 37.8698 52.1857 41.3306 50.6096C44.4665 49.1798 46.6599 46.5639 46.6599 46.5639C52.363 48.3187 55.1901 48.2212 55.1901 48.2212C57.1886 48.4649 58.1959 43.2818 55.8075 42.9244ZM42.7767 43.5093C24.0429 37.9688 9.95596 18.5201 9.95596 18.5201C9.95596 18.5201 22.3206 33.1107 44.109 40.211C44.1415 41.3158 43.4916 42.8919 42.7767 43.5093Z" fill="#2FCD2F"/>
</svg>
