<svg xmlns="http://www.w3.org/2000/svg" fill="none" viewBox="0 0 172 111">
  <path fill="#103483" fill-rule="evenodd" d="M0 111h171.771V.64844H0V111z" clip-rule="evenodd"/>
  <path fill="#fff" fill-rule="evenodd" d="M79.1073 69.7399c0 10.1915-8.2617 16.8263-18.4053 16.8263H29.7449V25.0984h28.7083c10.1436 0 18.3893 6.0128 18.3893 16.1565 0 7.6396-3.78 11.9777-8.2138 13.3972 5.0559 1.2759 10.4148 6.89 10.4148 15.1037l.0638-.0159zM44.8326 50.0907h10.4786c3.4672-.078 6.2369-2.9116 6.2361-6.3796a.7857.7857 0 000-.1914c.0734-1.6628-.5174-3.2865-1.6424-4.5132-1.1249-1.2267-2.6916-1.9556-4.3545-2.0259H44.8326v13.1101zm12.9031 11.4991c3.4609.1721 6.1516 3.0752 6.0607 6.5391l.0957-.0319v.2392c.0007 3.4742-2.7786 6.3102-6.2521 6.3797H44.9765V61.5898h12.7592zM105.456 25.0984h15.63v46.9382h24.051v14.5136h-39.681V25.0984z" clip-rule="evenodd"/>
  <path fill="#fff" d="M89.9846 15.6084h2.02553v80.4152H89.9846z"/>
  <path fill="#103483" fill-rule="evenodd" d="M0 111h171.771V.64844H0V111z" clip-rule="evenodd"/>
  <path fill="#fff" fill-rule="evenodd" d="M79.1073 69.7399c0 10.1915-8.2617 16.8263-18.4053 16.8263H29.7449V25.0984h28.7083c10.1436 0 18.3893 6.0128 18.3893 16.1565 0 7.6396-3.78 11.9777-8.2138 13.3972 5.0559 1.2759 10.4148 6.89 10.4148 15.1037l.0638-.0159zM44.8326 50.0907h10.4786c3.4672-.078 6.2369-2.9116 6.2361-6.3796a.7857.7857 0 000-.1914c.0734-1.6628-.5174-3.2865-1.6424-4.5132-1.1249-1.2267-2.6916-1.9556-4.3545-2.0259H44.8326v13.1101zm12.9031 11.4991c3.4609.1721 6.1516 3.0752 6.0607 6.5391l.0957-.0319v.2392c.0007 3.4742-2.7786 6.3102-6.2521 6.3797H44.9765V61.5898h12.7592zM105.456 25.0984h15.63v46.9382h24.051v14.5136h-39.681V25.0984z" clip-rule="evenodd"/>
  <path fill="#fff" d="M89.9846 15.6084h2.02553v80.4152H89.9846z"/>
</svg>
