<?xml version="1.0" encoding="UTF-8"?>
<!-- Generator: Adobe Illustrator 21.1.0, SVG Export Plug-In . SVG Version: 6.00 Build 0)  -->
<svg version="1.1" id="Слой_1" xmlns="http://www.w3.org/2000/svg" xmlns:xlink="http://www.w3.org/1999/xlink" x="0px" y="0px" width="107.7px" height="69.2px" viewBox="0 0 107.7 69.2" style="enable-background:new 0 0 107.7 69.2;" xml:space="preserve">
<style type="text/css">
	.st0{fill:#103483;}
	.st1{fill:#FFFFFF;}
</style>
<g>
	<path class="st0" d="M0,69.2h107.7V0H0V69.2z"/>
	<path class="st1" d="M49.6,43.3c0,6.4-5.2,10.5-11.5,10.5H18.6V15.3h18c6.4,0,11.5,3.8,11.5,10.1c0,4.8-2.4,7.5-5.2,8.4   C46.2,34.7,49.6,38.2,49.6,43.3C49.6,43.3,49.6,43.3,49.6,43.3z M28.1,31h6.6c2.2,0,3.9-1.8,3.9-4c0,0,0-0.1,0-0.1   c0.1-2.2-1.6-4-3.8-4.1c0,0,0,0,0,0h-6.7C28.1,22.8,28.1,31,28.1,31z M40,42.3c0.1-2.2-1.6-4-3.8-4.1h-8v8.2h7.9   c2.2,0,3.9-1.8,3.9-4L40,42.3C40.1,42.3,40,42.3,40,42.3z"/>
	<path class="st1" d="M66.1,15.3h9.8v29.4H91v9.1H66.1V15.3z M56.4,9.4h1.3v50.4h-1.3V9.4z"/>
</g>
</svg>