<svg xmlns="http://www.w3.org/2000/svg" fill="none" viewBox="0 0 172 111"><path fill="#103483" fill-rule="evenodd" d="M0 111h171.771V.648H0V111z" clip-rule="evenodd"/><path fill="#fff" fill-rule="evenodd" d="M79.107 69.74c0 10.191-8.261 16.826-18.405 16.826H29.745V25.098h28.708c10.144 0 18.39 6.013 18.39 16.157 0 7.64-3.78 11.978-8.214 13.397 5.056 1.276 10.414 6.89 10.414 15.104l.064-.016zM44.833 50.09H55.31a6.38 6.38 0 006.236-6.379.786.786 0 000-.191 6.268 6.268 0 00-5.997-6.54H44.833v13.11zm12.903 11.5a6.38 6.38 0 016.06 6.539l.096-.032v.24a6.38 6.38 0 01-6.252 6.379H44.977V61.59h12.759zm47.72-36.492h15.63v46.939h24.051V86.55h-39.681V25.098z" clip-rule="evenodd"/><path fill="#fff" d="M89.985 15.608h2.025v80.416h-2.025z"/><path fill="#103483" fill-rule="evenodd" d="M0 111h171.771V.648H0V111z" clip-rule="evenodd"/><path fill="#fff" fill-rule="evenodd" d="M79.107 69.74c0 10.191-8.261 16.826-18.405 16.826H29.745V25.098h28.708c10.144 0 18.39 6.013 18.39 16.157 0 7.64-3.78 11.978-8.214 13.397 5.056 1.276 10.414 6.89 10.414 15.104l.064-.016zM44.833 50.09H55.31a6.38 6.38 0 006.236-6.379.786.786 0 000-.191 6.268 6.268 0 00-5.997-6.54H44.833v13.11zm12.903 11.5a6.38 6.38 0 016.06 6.539l.096-.032v.24a6.38 6.38 0 01-6.252 6.379H44.977V61.59h12.759zm47.72-36.492h15.63v46.939h24.051V86.55h-39.681V25.098z" clip-rule="evenodd"/><path fill="#fff" d="M89.985 15.608h2.025v80.416h-2.025z"/></svg>
